<svg id="Grupo_37634" data-name="Grupo 37634" xmlns="http://www.w3.org/2000/svg" xmlns:xlink="http://www.w3.org/1999/xlink" width="405.867" height="111.361" viewBox="0 0 405.867 111.361">
  <defs>
    <clipPath id="clip-path">
      <rect id="Rectángulo_23192" data-name="Rectángulo 23192" width="405.867" height="111.361" fill="none"/>
    </clipPath>
    <clipPath id="clip-path-2">
      <path id="Trazado_90427" data-name="Trazado 90427" d="M45.48,70.045a1.906,1.906,0,1,1,1.906,1.906,1.906,1.906,0,0,1-1.906-1.906M33.6,66.753V23.363a.04.04,0,0,1,.04-.04h27.49a.039.039,0,0,1,.04.04V66.753a.039.039,0,0,1-.04.04H33.641a.04.04,0,0,1-.04-.04m9.294-46.265v-.013a.453.453,0,0,1,.453-.453h8.076a.453.453,0,0,1,.453.453v.013a.453.453,0,0,1-.453.453H43.348a.453.453,0,0,1-.453-.453M34.63,17.261a3.874,3.874,0,0,0-3.688,3.87q0,23.994,0,47.989a8.749,8.749,0,0,0,.14,1.912,3.877,3.877,0,0,0,3.549,2.837H60.126a3.838,3.838,0,0,0,3.552-2.832,10.281,10.281,0,0,0,.153-2.2q0-23.88,0-47.761a3.879,3.879,0,0,0-3.691-3.815Z" transform="translate(-30.94 -17.261)" fill="none"/>
    </clipPath>
    <linearGradient id="linear-gradient" x1="-0.816" y1="1.703" x2="-0.789" y2="1.703" gradientUnits="objectBoundingBox">
      <stop offset="0" stop-color="#271938"/>
      <stop offset="0.55" stop-color="#3b2467"/>
      <stop offset="0.993" stop-color="#4d2f91"/>
      <stop offset="1" stop-color="#4d2f91"/>
    </linearGradient>
    <clipPath id="clip-path-4">
      <path id="Trazado_90435" data-name="Trazado 90435" d="M164.841,73.074a2.451,2.451,0,1,1,2.451,2.451,2.451,2.451,0,0,1-2.451-2.451m-15.655-4.655V21.156a.041.041,0,0,1,.041-.041h36.131a.041.041,0,0,1,.041.041V68.419a.041.041,0,0,1-.041.041H149.226a.041.041,0,0,1-.041-.041m-.191-52.275a4.153,4.153,0,0,0-3.987,4.225Q145,46.185,145,72a9.079,9.079,0,0,0,.156,2.056,4.175,4.175,0,0,0,3.821,3.026h36.605A4.147,4.147,0,0,0,189.4,74.1a9.4,9.4,0,0,0,.186-2.271q0-25.733-.007-51.465a4.155,4.155,0,0,0-3.975-4.225Z" transform="translate(-145.004 -16.144)" fill="none"/>
    </clipPath>
    <linearGradient id="linear-gradient-2" x1="-2.82" y1="1.598" x2="-2.801" y2="1.598" xlink:href="#linear-gradient"/>
    <clipPath id="clip-path-6">
      <path id="Trazado_90444" data-name="Trazado 90444" d="M288.88,64.95a.045.045,0,0,1-.01-.062l.522-.753A1.714,1.714,0,0,1,290.8,63.4h6.122a.044.044,0,0,1,.035.016l1.22,1.47a.05.05,0,0,1,.01.028.045.045,0,0,1-.044.046h-9.236a.051.051,0,0,1-.026-.008m32.372-2.777-55.481-.2a.043.043,0,0,1-.035-.019.044.044,0,0,1,.01-.06l2-1.395.977-.307h48.7l.834.216,3.018,1.682a.042.042,0,0,1,.022.039.043.043,0,0,1-.042.042h0m-53.016-35.6,49.118-.06V56.188l-49.118.039Zm-.582-3.153a1.739,1.739,0,0,0-1.738,1.738V58.834a.1.1,0,0,1-.042.087l-7.026,5.511a1.671,1.671,0,0,0-.639,1.314v.006a1.67,1.67,0,0,0,1.671,1.671h65.881a1.671,1.671,0,0,0,1.032-2.984l-7.069-5.551a.149.149,0,0,1-.055-.115V25.161a1.742,1.742,0,0,0-1.742-1.742Z" transform="translate(-258.21 -23.419)" fill="none"/>
    </clipPath>
    <linearGradient id="linear-gradient-3" x1="-3.234" y1="2.069" x2="-3.221" y2="2.069" xlink:href="#linear-gradient"/>
    <clipPath id="clip-path-8">
      <path id="Trazado_90453" data-name="Trazado 90453" d="M443.893,63.706a1.335,1.335,0,1,1,1.335,1.335,1.335,1.335,0,0,1-1.335-1.335m-3.855,0a1.341,1.341,0,1,1,1.341,1.34,1.342,1.342,0,0,1-1.341-1.34m3.854-3.984a1.335,1.335,0,1,1,1.334,1.335,1.335,1.335,0,0,1-1.334-1.335m-3.854,0a1.341,1.341,0,1,1,1.341,1.341,1.342,1.342,0,0,1-1.341-1.341m3.855-3.978a1.335,1.335,0,1,1,1.335,1.334,1.336,1.336,0,0,1-1.335-1.334m-3.856,0a1.342,1.342,0,1,1,1.342,1.342,1.343,1.343,0,0,1-1.342-1.342M438.5,50.981a.146.146,0,0,0-.146.146v16.5a4.845,4.845,0,0,0,4.731,4.951h.342a4.845,4.845,0,0,0,4.731-4.951v-16.5a.146.146,0,0,0-.147-.146Z" transform="translate(-438.354 -50.981)" fill="none"/>
    </clipPath>
    <linearGradient id="linear-gradient-4" x1="-38.762" y1="3.11" x2="-38.673" y2="3.11" xlink:href="#linear-gradient"/>
    <clipPath id="clip-path-9">
      <path id="Trazado_90454" data-name="Trazado 90454" d="M411.58,59.892l0,0,0,0m-3.194-.007,0,0,0,0m3.2-.016,0,.008,0,0a.029.029,0,0,0,0-.012m-3.191-.005v.007l0,0v-.01m25.732-33.321,0,.006,0-.006m-.005-.025s.006,0,.006.009v0a.016.016,0,0,0-.006-.011m-.021-.013h0m-46.164.04a2,2,0,0,0-1.1,2.13q0,14.306,0,28.612c0,1.128.058,1.982,1.1,2.446a2.837,2.837,0,0,0,1.1.173q1.152.008,2.3,0h15.562l4.134,0,6.689,0,4.707,0h6.934a.067.067,0,0,0,.077-.076l0-2.7a.059.059,0,0,0-.066-.066h-6.887l-4.77,0h-5.594l-3.8-.006-10.658,0-5.115,0c-.121,0-.25,0-.382.007-.88.023-1.918.048-1.918-1.163q0-12.826,0-25.651a1.349,1.349,0,0,1,.088-.418.936.936,0,0,1,.818-.614q1.919-.023,3.816-.016H405.3l5.225,0h5.5l5.115,0H434.3c.991.067,1.095.707,1.093,1.59q-.005,7.376,0,14.757a.059.059,0,0,0,.066.067h3.274a.057.057,0,0,0,.063-.065q0-8.333,0-16.664c0-1.088-.107-1.923-1.121-2.359a3.159,3.159,0,0,0-1.183-.169l-3.263,0H390.473c-.349,0-.759-.026-1.167-.026a3.552,3.552,0,0,0-1.372.2" transform="translate(-386.832 -26.345)" fill="none"/>
    </clipPath>
    <linearGradient id="linear-gradient-5" x1="-6.453" y1="2.637" x2="-6.437" y2="2.637" xlink:href="#linear-gradient"/>
    <clipPath id="clip-path-10">
      <path id="Trazado_90455" data-name="Trazado 90455" d="M409.276,67.521v5.411a.057.057,0,0,1-.065.064h-9.8a2.118,2.118,0,0,0-.825.117,1.06,1.06,0,0,0-.092,1.777,1.691,1.691,0,0,0,.847.171q1.76.008,3.511,0l8.8,0h9.634l5.236,0q1.533,0,2.98-.01a1.024,1.024,0,0,0,.564-1.9,1.734,1.734,0,0,0-.826-.153h-2.659l-5.5,0h-1.689a.047.047,0,0,1-.054-.052V67.522a.051.051,0,0,0-.057-.057l-3.46,0-4.4,0-2.082,0a.06.06,0,0,0-.06.06" transform="translate(-398.054 -67.461)" fill="none"/>
    </clipPath>
    <linearGradient id="linear-gradient-6" x1="-10.417" y1="6.951" x2="-10.391" y2="6.951" xlink:href="#linear-gradient"/>
  </defs>
  <g id="Grupo_37635" data-name="Grupo 37635">
    <g id="Grupo_37634-2" data-name="Grupo 37634" clip-path="url(#clip-path)">
      <path id="Trazado_90426" data-name="Trazado 90426" d="M86.538,43.268A43.269,43.269,0,1,1,43.268,0,43.269,43.269,0,0,1,86.538,43.268" transform="translate(0 0)" fill="#f6862e"/>
    </g>
  </g>
  <g id="Grupo_37637" data-name="Grupo 37637" transform="translate(26.824 14.964)">
    <g id="Grupo_37636" data-name="Grupo 37636" clip-path="url(#clip-path-2)">
      <rect id="Rectángulo_23193" data-name="Rectángulo 23193" width="32.891" height="56.607" transform="translate(0 0)" fill="url(#linear-gradient)"/>
    </g>
  </g>
  <g id="Grupo_37639" data-name="Grupo 37639">
    <g id="Grupo_37638" data-name="Grupo 37638" clip-path="url(#clip-path)">
      <path id="Trazado_90428" data-name="Trazado 90428" d="M24.893,117.75H21.652v8.995H20.329V117.75H17.1v-1.087h7.8Z" transform="translate(-2.275 -15.522)" fill="#fff"/>
      <path id="Trazado_90429" data-name="Trazado 90429" d="M32.6,124.106H28.377l-.949,2.638H26.057l3.85-10.083h1.163l3.857,10.083H33.564Zm-3.822-1.087h3.428L30.489,118.3Z" transform="translate(-3.467 -15.522)" fill="#fff"/>
      <path id="Trazado_90430" data-name="Trazado 90430" d="M37.854,126.745V116.663h3.3a3.824,3.824,0,0,1,2.468.679,2.444,2.444,0,0,1,.827,2.008,2.048,2.048,0,0,1-.4,1.25,2.6,2.6,0,0,1-1.093.841,2.336,2.336,0,0,1,1.291.87,2.491,2.491,0,0,1,.474,1.527,2.7,2.7,0,0,1-.879,2.133,3.64,3.64,0,0,1-2.486.775Zm1.33-5.782h2.007a2.107,2.107,0,0,0,1.4-.437,1.465,1.465,0,0,0,.523-1.187,1.442,1.442,0,0,0-.485-1.211,2.378,2.378,0,0,0-1.475-.378H39.184Zm0,1.066v3.629h2.194a2.116,2.116,0,0,0,1.465-.482,1.689,1.689,0,0,0,.537-1.326q0-1.821-1.98-1.821Z" transform="translate(-5.037 -15.522)" fill="#fff"/>
      <path id="Trazado_90431" data-name="Trazado 90431" d="M49.375,125.658h4.778v1.087H48.038V116.663h1.337Z" transform="translate(-6.392 -15.522)" fill="#fff"/>
      <path id="Trazado_90432" data-name="Trazado 90432" d="M62.538,122.085H58.17v3.574h5.075v1.086H56.84V116.663h6.336v1.087H58.17V121h4.369Z" transform="translate(-7.563 -15.522)" fill="#fff"/>
      <path id="Trazado_90433" data-name="Trazado 90433" d="M73.135,117.75H69.894v8.995H68.571V117.75H65.339v-1.087h7.8Z" transform="translate(-8.694 -15.522)" fill="#fff"/>
      <path id="Trazado_90434" data-name="Trazado 90434" d="M207.341,43.268A43.269,43.269,0,1,1,164.071,0a43.269,43.269,0,0,1,43.269,43.269" transform="translate(-16.073 0)" fill="#f6862e"/>
    </g>
  </g>
  <g id="Grupo_37641" data-name="Grupo 37641" transform="translate(125.71 13.996)">
    <g id="Grupo_37640" data-name="Grupo 37640" clip-path="url(#clip-path-4)">
      <rect id="Rectángulo_23195" data-name="Rectángulo 23195" width="44.578" height="60.939" transform="translate(-0.001 0)" fill="url(#linear-gradient-2)"/>
    </g>
  </g>
  <g id="Grupo_37643" data-name="Grupo 37643">
    <g id="Grupo_37642" data-name="Grupo 37642" clip-path="url(#clip-path)">
      <path id="Trazado_90436" data-name="Trazado 90436" d="M144.244,123.524a3.709,3.709,0,0,1-1.181,2.468,3.866,3.866,0,0,1-2.642.87,3.553,3.553,0,0,1-2.864-1.281,5.154,5.154,0,0,1-1.077-3.428v-.969a5.743,5.743,0,0,1,.5-2.472,3.756,3.756,0,0,1,1.424-1.638,3.963,3.963,0,0,1,2.133-.571,3.646,3.646,0,0,1,2.576.9,3.759,3.759,0,0,1,1.129,2.483h-1.337a2.9,2.9,0,0,0-.751-1.75,2.273,2.273,0,0,0-1.617-.542,2.38,2.38,0,0,0-2,.942,4.329,4.329,0,0,0-.723,2.681v.978a4.451,4.451,0,0,0,.686,2.613,2.213,2.213,0,0,0,1.918.97,2.56,2.56,0,0,0,1.7-.5,2.784,2.784,0,0,0,.785-1.749Z" transform="translate(-18.159 -15.501)" fill="#fff"/>
      <path id="Trazado_90437" data-name="Trazado 90437" d="M153.226,122.085h-4.369v3.574h5.075v1.086h-6.405V116.663h6.336v1.087h-5.006V121h4.369Z" transform="translate(-19.629 -15.522)" fill="#fff"/>
      <path id="Trazado_90438" data-name="Trazado 90438" d="M158.162,125.658h4.778v1.087h-6.115V116.663h1.337Z" transform="translate(-20.866 -15.522)" fill="#fff"/>
      <path id="Trazado_90439" data-name="Trazado 90439" d="M172.262,116.663v6.855a3.22,3.22,0,0,1-.9,2.334,3.608,3.608,0,0,1-2.413,1.018l-.354.014a3.774,3.774,0,0,1-2.638-.893,3.2,3.2,0,0,1-1-2.459v-6.869h1.316v6.827A2.1,2.1,0,0,0,168.6,125.8a2.33,2.33,0,0,0,1.729-.6,2.3,2.3,0,0,0,.6-1.7v-6.834Z" transform="translate(-21.949 -15.522)" fill="#fff"/>
      <path id="Trazado_90440" data-name="Trazado 90440" d="M177.138,125.658h4.778v1.087H175.8V116.663h1.337Z" transform="translate(-23.391 -15.522)" fill="#fff"/>
      <path id="Trazado_90441" data-name="Trazado 90441" d="M190.173,124.106h-4.224L185,126.745h-1.371l3.85-10.083h1.163l3.857,10.083h-1.364Zm-3.822-1.087h3.428l-1.717-4.715Z" transform="translate(-24.432 -15.522)" fill="#fff"/>
      <path id="Trazado_90442" data-name="Trazado 90442" d="M199.122,122.667h-2.368v4.078h-1.337V116.663h3.338a3.948,3.948,0,0,1,2.621.776,2.791,2.791,0,0,1,.918,2.258,2.718,2.718,0,0,1-.51,1.641,3.049,3.049,0,0,1-1.415,1.046l2.367,4.279v.082h-1.426Zm-2.368-1.087H198.8a2.3,2.3,0,0,0,1.576-.513,1.737,1.737,0,0,0,.586-1.373,1.829,1.829,0,0,0-.558-1.437,2.359,2.359,0,0,0-1.609-.506h-2.036Z" transform="translate(-26.001 -15.522)" fill="#fff"/>
      <path id="Trazado_90443" data-name="Trazado 90443" d="M333.974,43.268A43.269,43.269,0,1,1,290.7,0a43.269,43.269,0,0,1,43.269,43.269" transform="translate(-32.922 0)" fill="#f6862e"/>
    </g>
  </g>
  <g id="Grupo_37645" data-name="Grupo 37645" transform="translate(223.854 20.303)">
    <g id="Grupo_37644" data-name="Grupo 37644" clip-path="url(#clip-path-6)">
      <rect id="Rectángulo_23197" data-name="Rectángulo 23197" width="69.221" height="44.004" transform="translate(0 0)" fill="url(#linear-gradient-3)"/>
    </g>
  </g>
  <g id="Grupo_37647" data-name="Grupo 37647">
    <g id="Grupo_37646" data-name="Grupo 37646" clip-path="url(#clip-path)">
      <path id="Trazado_90445" data-name="Trazado 90445" d="M264.247,122.23a6.251,6.251,0,0,1-2.489-1.209,2.306,2.306,0,0,1-.779-1.769,2.439,2.439,0,0,1,.952-1.97,3.786,3.786,0,0,1,2.476-.779,4.129,4.129,0,0,1,1.852.4,3.037,3.037,0,0,1,1.26,1.108,2.828,2.828,0,0,1,.447,1.544h-1.337a1.843,1.843,0,0,0-.582-1.442,2.362,2.362,0,0,0-1.64-.525,2.422,2.422,0,0,0-1.535.434,1.446,1.446,0,0,0-.551,1.2,1.3,1.3,0,0,0,.524,1.044,5.132,5.132,0,0,0,1.78.781,8.236,8.236,0,0,1,1.965.779,2.982,2.982,0,0,1,1.053.994,2.533,2.533,0,0,1,.342,1.337,2.357,2.357,0,0,1-.955,1.963,4.076,4.076,0,0,1-2.555.737,4.745,4.745,0,0,1-1.939-.4,3.256,3.256,0,0,1-1.388-1.091,2.664,2.664,0,0,1-.489-1.572H262a1.739,1.739,0,0,0,.675,1.444,2.845,2.845,0,0,0,1.8.529,2.616,2.616,0,0,0,1.613-.429,1.394,1.394,0,0,0,.56-1.17,1.371,1.371,0,0,0-.518-1.146,6,6,0,0,0-1.884-.8" transform="translate(-34.682 -15.501)" fill="#fff"/>
      <path id="Trazado_90446" data-name="Trazado 90446" d="M272.794,116.663l3.3,8.226,3.3-8.226h1.724v10.082H279.78v-3.926l.124-4.238-3.309,8.164h-1.019l-3.3-8.143.133,4.218v3.926h-1.33V116.663Z" transform="translate(-36.068 -15.522)" fill="#fff"/>
      <path id="Trazado_90447" data-name="Trazado 90447" d="M290.775,124.106h-4.224l-.949,2.638h-1.371l3.85-10.083h1.163l3.857,10.083h-1.364Zm-3.822-1.087h3.428l-1.717-4.715Z" transform="translate(-37.818 -15.522)" fill="#fff"/>
      <path id="Trazado_90448" data-name="Trazado 90448" d="M299.724,122.667h-2.368v4.078H296.02V116.663h3.338a3.948,3.948,0,0,1,2.621.776,2.791,2.791,0,0,1,.918,2.258,2.718,2.718,0,0,1-.51,1.641,3.047,3.047,0,0,1-1.416,1.046l2.368,4.279v.082h-1.426Zm-2.368-1.087H299.4a2.3,2.3,0,0,0,1.576-.513,1.736,1.736,0,0,0,.585-1.373,1.828,1.828,0,0,0-.557-1.437,2.36,2.36,0,0,0-1.61-.506h-2.036Z" transform="translate(-39.386 -15.522)" fill="#fff"/>
      <path id="Trazado_90449" data-name="Trazado 90449" d="M312.3,117.75h-3.241v8.995h-1.323V117.75H304.5v-1.087h7.8Z" transform="translate(-40.515 -15.522)" fill="#fff"/>
      <path id="Trazado_90450" data-name="Trazado 90450" d="M325.47,117.75h-3.241v8.995h-1.323V117.75h-3.233v-1.087h7.8Z" transform="translate(-42.268 -15.522)" fill="#fff"/>
      <path id="Trazado_90451" data-name="Trazado 90451" d="M331.708,124.979l2.881-8.317h1.454L332.3,126.745h-1.177l-3.732-10.083h1.447Z" transform="translate(-43.561 -15.522)" fill="#fff"/>
      <path id="Trazado_90452" data-name="Trazado 90452" d="M454.876,43.268A43.269,43.269,0,1,1,411.606,0a43.269,43.269,0,0,1,43.269,43.269" transform="translate(-49.009 0)" fill="#f6862e"/>
    </g>
  </g>
  <g id="Grupo_37649" data-name="Grupo 37649" transform="translate(380.03 44.198)">
    <g id="Grupo_37648" data-name="Grupo 37648" clip-path="url(#clip-path-8)">
      <rect id="Rectángulo_23199" data-name="Rectángulo 23199" width="9.804" height="21.597" transform="translate(0 0)" fill="url(#linear-gradient-4)"/>
    </g>
  </g>
  <g id="Grupo_37651" data-name="Grupo 37651" transform="translate(335.363 22.84)">
    <g id="Grupo_37650" data-name="Grupo 37650" clip-path="url(#clip-path-9)">
      <rect id="Rectángulo_23200" data-name="Rectángulo 23200" width="51.968" height="33.566" transform="translate(0 0)" fill="url(#linear-gradient-5)"/>
    </g>
  </g>
  <g id="Grupo_37653" data-name="Grupo 37653" transform="translate(345.092 58.485)">
    <g id="Grupo_37652" data-name="Grupo 37652" clip-path="url(#clip-path-10)">
      <rect id="Rectángulo_23201" data-name="Rectángulo 23201" width="33.11" height="7.607" transform="translate(-0.177)" fill="url(#linear-gradient-6)"/>
    </g>
  </g>
  <g id="Grupo_37655" data-name="Grupo 37655">
    <g id="Grupo_37654" data-name="Grupo 37654" clip-path="url(#clip-path)">
      <path id="Trazado_90456" data-name="Trazado 90456" d="M394.524,125.658H399.3v1.087h-6.115V116.663h1.337Z" transform="translate(-52.315 -15.522)" fill="#fff"/>
      <path id="Trazado_90457" data-name="Trazado 90457" d="M407.558,124.106h-4.224l-.949,2.638h-1.371l3.85-10.083h1.163l3.857,10.083h-1.364Zm-3.822-1.087h3.428l-1.717-4.715Z" transform="translate(-53.356 -15.522)" fill="#fff"/>
      <path id="Trazado_90458" data-name="Trazado 90458" d="M414.141,122.8v3.947h-1.33V116.663h3.718a3.736,3.736,0,0,1,2.593.845,2.861,2.861,0,0,1,.938,2.236,2.826,2.826,0,0,1-.916,2.261,3.9,3.9,0,0,1-2.629.793Zm0-1.087h2.388a2.388,2.388,0,0,0,1.634-.5,1.84,1.84,0,0,0,.568-1.453,1.9,1.9,0,0,0-.568-1.443,2.236,2.236,0,0,0-1.558-.563h-2.465Z" transform="translate(-54.926 -15.522)" fill="#fff"/>
      <path id="Trazado_90459" data-name="Trazado 90459" d="M429.969,117.75h-3.241v8.995h-1.323V117.75h-3.233v-1.087h7.8Z" transform="translate(-56.171 -15.522)" fill="#fff"/>
      <path id="Trazado_90460" data-name="Trazado 90460" d="M440.369,122.007a6.23,6.23,0,0,1-.5,2.587,3.79,3.79,0,0,1-1.412,1.686,3.9,3.9,0,0,1-5.675-1.672,6.007,6.007,0,0,1-.523-2.511v-.727a6.142,6.142,0,0,1,.506-2.569,3.736,3.736,0,0,1,3.546-2.3,3.907,3.907,0,0,1,2.135.585,3.771,3.771,0,0,1,1.423,1.7,6.256,6.256,0,0,1,.5,2.586Zm-1.323-.65a4.525,4.525,0,0,0-.719-2.753,2.377,2.377,0,0,0-2.015-.959,2.348,2.348,0,0,0-1.984.959,4.435,4.435,0,0,0-.746,2.662v.74a4.527,4.527,0,0,0,.731,2.733,2.56,2.56,0,0,0,4.006.055,4.494,4.494,0,0,0,.727-2.69Z" transform="translate(-57.514 -15.501)" fill="#fff"/>
      <path id="Trazado_90461" data-name="Trazado 90461" d="M445.244,122.8v3.947h-1.33V116.663h3.718a3.736,3.736,0,0,1,2.593.845,2.86,2.86,0,0,1,.938,2.236,2.826,2.826,0,0,1-.916,2.261,3.9,3.9,0,0,1-2.629.793Zm0-1.087h2.388a2.388,2.388,0,0,0,1.634-.5,1.84,1.84,0,0,0,.568-1.453,1.9,1.9,0,0,0-.568-1.443,2.236,2.236,0,0,0-1.558-.563h-2.465Z" transform="translate(-59.064 -15.522)" fill="#fff"/>
    </g>
  </g>
</svg>
