<svg xmlns="http://www.w3.org/2000/svg" xmlns:xlink="http://www.w3.org/1999/xlink" width="517" height="59.5" viewBox="0 0 517 59.5">
  <defs>
    <clipPath id="clip-path">
      <rect id="Rectángulo_23178" data-name="Rectángulo 23178" width="129.257" height="31.316" fill="none"/>
    </clipPath>
    <clipPath id="clip-path-2">
      <rect id="Rectángulo_23179" data-name="Rectángulo 23179" width="134.756" height="35.109" fill="none"/>
    </clipPath>
  </defs>
  <g id="Grupo_37633" data-name="Grupo 37633" transform="translate(-1162 -1463)">
    <g id="formas_de_pago">
      <g id="Grupo_37601" data-name="Grupo 37601" transform="translate(1162 1463)">
        <rect id="Rectángulo_23180" data-name="Rectángulo 23180" width="156" height="59" rx="5" fill="#fff"/>
        <g id="Grupo_37597" data-name="Grupo 37597" transform="translate(13.677 13.677)">
          <g id="Grupo_37596" data-name="Grupo 37596" transform="translate(0 0)" clip-path="url(#clip-path)">
            <path id="Trazado_90394" data-name="Trazado 90394" d="M12.351,8.622h8.833c4.742,0,6.528,2.4,6.253,5.933-.455,5.825-3.976,9.044-8.646,9.044H16.432c-.639,0-1.071.423-1.245,1.573l-1.012,6.677c-.065.433-.293.688-.637.719H8c-.521,0-.707-.4-.57-1.263L10.813,9.889a1.351,1.351,0,0,1,1.538-1.267" transform="translate(-1.073 -1.252)" fill="#0083c8" fill-rule="evenodd"/>
            <path id="Trazado_90395" data-name="Trazado 90395" d="M56.072,8.159c2.981,0,5.73,1.616,5.354,5.646-.446,4.778-3.021,7.438-7.071,7.449H50.823c-.509,0-.754.414-.887,1.266l-.682,4.348c-.1.656-.439.98-.938.98h-3.29c-.524,0-.708-.335-.591-1.085l2.72-17.429c.133-.857.462-1.176,1.042-1.176Zm-5.359,9.33h2.68c1.675-.063,2.789-1.223,2.9-3.317A2.023,2.023,0,0,0,54.1,11.96l-2.523.012Zm19.656,9.024c.3-.273.607-.415.562-.078l-.107.807c-.056.421.112.646.505.646h2.923c.492,0,.732-.2.853-.96l1.8-11.3c.091-.568-.047-.847-.479-.847H73.215c-.29,0-.43.163-.506.606l-.119.7c-.062.362-.228.426-.383.061-.546-1.292-1.936-1.87-3.887-1.83-4.508.092-7.548,3.515-7.873,7.9a5.433,5.433,0,0,0,5.385,6.058,5.81,5.81,0,0,0,4.536-1.756m-2.446-1.737a2.936,2.936,0,0,1-3.011-3.445,4.2,4.2,0,0,1,4.036-3.446,2.936,2.936,0,0,1,3.011,3.446,4.2,4.2,0,0,1-4.035,3.445M82.63,14.741H79.677c-.611,0-.86.448-.665,1.017l3.679,10.776L79.065,31.66c-.3.427-.069.819.358.819h3.331a1.02,1.02,0,0,0,.991-.486L95.062,15.758c.348-.5.184-1.023-.388-1.024l-3.15,0c-.54,0-.757.214-1.068.663l-4.721,6.849-2.1-6.861a.908.908,0,0,0-1.006-.642" transform="translate(-6.448 -1.185)" fill="#032d64" fill-rule="evenodd"/>
            <path id="Trazado_90396" data-name="Trazado 90396" d="M115.464,8.159c2.981,0,5.73,1.616,5.354,5.646-.446,4.777-3.021,7.438-7.07,7.449h-3.533c-.509,0-.755.414-.887,1.266l-.682,4.348c-.1.656-.439.98-.939.98h-3.29c-.524,0-.707-.335-.591-1.085l2.72-17.429c.133-.857.462-1.176,1.043-1.176Zm-5.359,9.33h2.681c1.675-.063,2.789-1.223,2.9-3.317a2.023,2.023,0,0,0-2.194-2.211l-2.522.011Zm19.656,9.024c.3-.273.608-.415.563-.078l-.107.808c-.056.421.112.645.5.645h2.923c.491,0,.732-.2.852-.96l1.8-11.3c.091-.568-.047-.846-.479-.846h-3.213c-.29,0-.431.162-.506.6l-.12.7c-.062.364-.228.427-.382.062-.546-1.292-1.936-1.87-3.887-1.83-4.508.092-7.548,3.515-7.873,7.9a5.432,5.432,0,0,0,5.384,6.058,5.81,5.81,0,0,0,4.536-1.756m-2.446-1.736a2.936,2.936,0,0,1-3.011-3.446,4.2,4.2,0,0,1,4.036-3.446,2.936,2.936,0,0,1,3.011,3.446,4.2,4.2,0,0,1-4.036,3.446M140.8,27.909h-3.374a.4.4,0,0,1-.413-.467l2.967-18.776a.581.581,0,0,1,.561-.467h3.373a.4.4,0,0,1,.414.467l-2.967,18.776a.581.581,0,0,1-.561.467" transform="translate(-15.072 -1.185)" fill="#0083c8" fill-rule="evenodd"/>
            <path id="Trazado_90397" data-name="Trazado 90397" d="M5.755,0H14.6c2.491,0,5.444.081,7.42,1.823a5.981,5.981,0,0,1,1.852,5.01c-.542,6.752-4.58,10.534-10,10.534H9.513c-.743,0-1.234.492-1.444,1.824L6.852,26.933c-.079.5-.3.8-.694.834H.711c-.6,0-.82-.462-.662-1.464L3.972,1.469A1.566,1.566,0,0,1,5.755,0" transform="translate(0 0)" fill="#032d64" fill-rule="evenodd"/>
            <path id="Trazado_90398" data-name="Trazado 90398" d="M9.588,19.662l1.545-9.774A1.35,1.35,0,0,1,12.67,8.622H21.5a8.629,8.629,0,0,1,3.57.649c-.887,6.009-4.774,9.348-9.863,9.348H10.849c-.574,0-1,.293-1.261,1.044" transform="translate(-1.392 -1.252)" fill="#122652" fill-rule="evenodd"/>
          </g>
        </g>
      </g>
      <g id="Grupo_37600" data-name="Grupo 37600" transform="translate(1332.957 1463)">
        <rect id="Rectángulo_23181" data-name="Rectángulo 23181" width="156" height="59" rx="5" transform="translate(0.043)" fill="#fff"/>
        <g id="Grupo_37599" data-name="Grupo 37599" transform="translate(11.112 11.967)">
          <g id="Grupo_37598" data-name="Grupo 37598" transform="translate(0 0)" clip-path="url(#clip-path-2)">
            <path id="Trazado_90399" data-name="Trazado 90399" d="M238.522,22.755c0-8.891-11.046-16.138-24.673-16.138s-24.672,7.248-24.672,16.138c0,.229,0,.864,0,.945,0,9.432,9.655,17.071,24.672,17.071,15.11,0,24.677-7.637,24.677-17.069Z" transform="translate(-189.175 -6.617)" fill="#08286e"/>
            <path id="Trazado_90400" data-name="Trazado 90400" d="M237.74,22.909c0,8.382-10.622,15.177-23.724,15.177s-23.724-6.795-23.724-15.177S200.915,7.731,214.017,7.731s23.724,6.8,23.724,15.178" transform="translate(-189.337 -6.779)" fill="#0090df"/>
            <path id="Trazado_90401" data-name="Trazado 90401" d="M208.806,18.953c-.013.024-.249.268-.1.466a2.967,2.967,0,0,0,2.7.49,7.835,7.835,0,0,0,2.453-1.552,9.831,9.831,0,0,1,2.8-1.786,3.2,3.2,0,0,1,2.042-.054,6.3,6.3,0,0,1,1.862,1.086c1.623,1.221,8.15,6.918,9.278,7.9a56.381,56.381,0,0,1,10.431-3.357,12.927,12.927,0,0,0-4.953-7.791c-3.76,1.58-8.356,2.4-12.849.209a12.453,12.453,0,0,0-4.853-1.1c-3.565.083-5.11,1.626-6.745,3.259Z" transform="translate(-192.004 -7.611)" fill="#fff"/>
            <path id="Trazado_90402" data-name="Trazado 90402" d="M226.945,26.193c-.076-.068-7.675-6.717-9.4-8.011a4.208,4.208,0,0,0-2.132-1.011,2.9,2.9,0,0,0-1.014.1,9.161,9.161,0,0,0-2.777,1.655,7.941,7.941,0,0,1-2.712,1.677,4.389,4.389,0,0,1-2.989-.449,1.322,1.322,0,0,1-.5-.544.919.919,0,0,1,.254-.992l2.1-2.268q.365-.365.74-.727a13.6,13.6,0,0,0-1.91.43,8.354,8.354,0,0,1-2.229.417,21.383,21.383,0,0,1-2.276-.356,34.106,34.106,0,0,1-6.051-2.187,13.41,13.41,0,0,0-5.55,8.05c.428.114,1.119.319,1.409.383,6.746,1.5,8.846,3.045,9.228,3.368a2.232,2.232,0,0,1,3.5.206,2.551,2.551,0,0,1,1.608-.566,3.01,3.01,0,0,1,.965.169,2.219,2.219,0,0,1,1.357,1.227,2.25,2.25,0,0,1,.939-.2,2.84,2.84,0,0,1,1.122.247,2.4,2.4,0,0,1,1.324,2.677,2.154,2.154,0,0,1,.268-.015,2.677,2.677,0,0,1,2.674,2.675,2.649,2.649,0,0,1-.32,1.263,4.245,4.245,0,0,0,2.322.622,1.488,1.488,0,0,0,1.088-.474c.066-.095.138-.206.072-.285l-1.9-2.114s-.314-.3-.21-.411.3.051.439.166c.968.809,2.151,2.029,2.151,2.029.02.014.1.168.535.247a1.976,1.976,0,0,0,1.5-.351,2.172,2.172,0,0,0,.33-.338c-.008.006-.014.015-.02.017a1.011,1.011,0,0,0-.054-1.252l-2.222-2.5s-.318-.293-.21-.412c.1-.1.3.052.441.168.7.588,1.7,1.586,2.651,2.519a1.811,1.811,0,0,0,2.132-.074,1.53,1.53,0,0,0,.789-1.392,1.59,1.59,0,0,0-.469-.927L220.9,25.6s-.32-.274-.207-.412c.093-.117.3.051.437.166.968.809,3.585,3.208,3.585,3.208a1.841,1.841,0,0,0,2.06-.041,1.377,1.377,0,0,0,.677-1.088,1.608,1.608,0,0,0-.51-1.237" transform="translate(-189.368 -7.678)" fill="#fff"/>
            <path id="Trazado_90403" data-name="Trazado 90403" d="M214.031,32.039a6.647,6.647,0,0,0-1.053.233c-.037-.025.029-.214.074-.323s.665-1.973-.846-2.621a1.78,1.78,0,0,0-2.105.315c-.064.066-.092.061-.1-.024a1.667,1.667,0,0,0-1.172-1.549,2.284,2.284,0,0,0-2.575.919,1.65,1.65,0,1,0-.491,1.4c.009.009.014.024.009.056a2.179,2.179,0,0,0,1.36,2.5,1.623,1.623,0,0,0,1.6-.247c.132-.093.153-.053.134.069a1.554,1.554,0,0,0,1.163,1.669,1.477,1.477,0,0,0,1.73-.321c.148-.135.188-.113.2.095a2.082,2.082,0,1,0,2.081-2.176" transform="translate(-191.177 -9.656)" fill="#fff"/>
            <path id="Trazado_90404" data-name="Trazado 90404" d="M227.215,25.2c-2.34-2.043-7.75-6.745-9.215-7.845a6.44,6.44,0,0,0-1.909-1.111,3.14,3.14,0,0,0-.938-.145,3.936,3.936,0,0,0-1.191.2,9.753,9.753,0,0,0-2.8,1.774l-.046.038a7.747,7.747,0,0,1-2.393,1.523,4.058,4.058,0,0,1-.886.1,2.272,2.272,0,0,1-1.664-.535c-.041-.053-.015-.138.082-.262l.013-.016,2.059-2.219c1.612-1.613,3.135-3.135,6.642-3.217.058,0,.117,0,.175,0a12.423,12.423,0,0,1,4.609,1.091,14.273,14.273,0,0,0,6.283,1.507,16.392,16.392,0,0,0,6.9-1.652c-.268-.226-.547-.444-.834-.66a15.167,15.167,0,0,1-6.057,1.375,13.358,13.358,0,0,1-5.878-1.415,13.244,13.244,0,0,0-5.018-1.185l-.2,0a8.709,8.709,0,0,0-5.72,2.032,11.3,11.3,0,0,0-2.854.52,7.686,7.686,0,0,1-2.011.386c-.257,0-.721-.023-.763-.025a39.11,39.11,0,0,1-7.231-2c-.295.209-.579.424-.854.643a35.692,35.692,0,0,0,7.839,2.266c.322.021.665.058,1.009.059a8.57,8.57,0,0,0,2.269-.422c.437-.122.919-.256,1.426-.353-.135.132-.27.268-.406.4l-2.092,2.263a1.051,1.051,0,0,0-.286,1.157,1.47,1.47,0,0,0,.55.61,4.359,4.359,0,0,0,2.221.563,3.994,3.994,0,0,0,.886-.092,8.019,8.019,0,0,0,2.771-1.7,9.2,9.2,0,0,1,2.724-1.63,3.11,3.11,0,0,1,.759-.1,1.569,1.569,0,0,1,.2.011,4.091,4.091,0,0,1,2.061.984c1.717,1.29,9.316,7.938,9.391,8a1.46,1.46,0,0,1,.456,1.117,1.217,1.217,0,0,1-.607.97,1.848,1.848,0,0,1-1,.31,1.644,1.644,0,0,1-.88-.255c-.028-.023-2.632-2.41-3.589-3.212a.8.8,0,0,0-.451-.24.246.246,0,0,0-.2.094c-.151.185.018.443.217.612l3.04,3.057a1.441,1.441,0,0,1,.421.824,1.389,1.389,0,0,1-.722,1.261,1.964,1.964,0,0,1-1.078.356,1.569,1.569,0,0,1-.868-.263l-.436-.43c-.8-.785-1.621-1.6-2.223-2.1a.81.81,0,0,0-.454-.235.258.258,0,0,0-.191.081c-.068.076-.116.214.055.441a1.536,1.536,0,0,0,.154.172l2.219,2.493a.849.849,0,0,1,.05,1.063l-.079.1a2.357,2.357,0,0,1-.206.2,1.779,1.779,0,0,1-1.085.344,1.714,1.714,0,0,1-.3-.026.76.76,0,0,1-.438-.185l-.026-.028c-.121-.125-1.24-1.267-2.166-2.04a.762.762,0,0,0-.432-.232.265.265,0,0,0-.2.09c-.183.2.092.5.209.61l1.893,2.087a.456.456,0,0,1-.072.127c-.068.094-.3.324-.985.409a1.748,1.748,0,0,1-.251.015,4.333,4.333,0,0,1-1.852-.55,2.823,2.823,0,0,0-2.553-4.026l-.1,0a2.506,2.506,0,0,0-1.433-2.651,2.958,2.958,0,0,0-1.18-.26,2.4,2.4,0,0,0-.865.156,2.375,2.375,0,0,0-1.382-1.174,3.1,3.1,0,0,0-1.014-.179,2.671,2.671,0,0,0-1.578.505,2.379,2.379,0,0,0-3.544-.2c-.589-.45-2.926-1.935-9.182-3.355-.3-.068-1-.268-1.424-.392a10.291,10.291,0,0,0-.16,1.027s1.154.276,1.381.327c6.39,1.42,8.5,2.9,8.858,3.175a2.4,2.4,0,0,0,2.649,3.276,2.794,2.794,0,0,0,1.806,2.087,2.394,2.394,0,0,0,.853.165,2.234,2.234,0,0,0,.546-.068,2.77,2.77,0,0,0,2.426,1.584,2.1,2.1,0,0,0,.731-.13,2.819,2.819,0,0,0,4.633.895,5.32,5.32,0,0,0,2.391.713,2.921,2.921,0,0,0,.362-.023,2.187,2.187,0,0,0,1.622-.793,1.123,1.123,0,0,0,.1-.162,2.772,2.772,0,0,0,.766.12A2.579,2.579,0,0,0,221,33.21a2.128,2.128,0,0,0,.911-1.325.137.137,0,0,0,0-.02,2.559,2.559,0,0,0,.517.053,2.874,2.874,0,0,0,1.587-.5,2.291,2.291,0,0,0,1.139-2.04,2.562,2.562,0,0,0,.522.055,2.744,2.744,0,0,0,1.488-.457,2.173,2.173,0,0,0,1.033-1.682,2.263,2.263,0,0,0-.328-1.358,61.358,61.358,0,0,1,9.858-3.087,10.234,10.234,0,0,0-.138-1.022A56.469,56.469,0,0,0,227.215,25.2M212.2,33.876a1.919,1.919,0,0,1-1.929-1.845c0-.088-.012-.324-.211-.324a.369.369,0,0,0-.235.123,1.355,1.355,0,0,1-.948.429,1.658,1.658,0,0,1-.624-.136c-1.1-.446-1.117-1.2-1.072-1.507a.275.275,0,0,0-.04-.231l-.068-.061H207a.335.335,0,0,0-.191.078,1.611,1.611,0,0,1-.935.333,1.456,1.456,0,0,1-.522-.1,2.024,2.024,0,0,1-1.264-2.346.2.2,0,0,0-.063-.191l-.1-.084-.1.091a1.492,1.492,0,0,1-1.041.421,1.505,1.505,0,1,1,1.487-1.7l.052.4.221-.343a2.093,2.093,0,0,1,2.406-.856,1.523,1.523,0,0,1,1.066,1.418c.016.2.156.206.183.206a.247.247,0,0,0,.174-.091,1.521,1.521,0,0,1,1.109-.468,2.126,2.126,0,0,1,.83.187c1.417.608.774,2.409.767,2.428-.121.3-.126.431-.012.507l.056.026h.042a1.016,1.016,0,0,0,.274-.073,2.41,2.41,0,0,1,.756-.166h0a1.933,1.933,0,1,1,0,3.866" transform="translate(-189.344 -7.477)" fill="#08286e"/>
            <path id="Trazado_90405" data-name="Trazado 90405" d="M343.656,13.184a5.749,5.749,0,0,0-8.11,0,6.141,6.141,0,0,0-1.338,3.954,6.111,6.111,0,0,0,1.338,3.972,5.811,5.811,0,0,0,8.11,0,6.11,6.11,0,0,0,1.336-3.972,6.139,6.139,0,0,0-1.336-3.954m-2.206,6.4a2.442,2.442,0,0,1-3.722,0,3.974,3.974,0,0,1-.653-2.446,3.953,3.953,0,0,1,.653-2.44,2.453,2.453,0,0,1,3.722,0,3.982,3.982,0,0,1,.648,2.44,4,4,0,0,1-.648,2.446" transform="translate(-210.236 -7.328)" fill="#08286e"/>
            <path id="Trazado_90406" data-name="Trazado 90406" d="M317.274,12.259a6.769,6.769,0,0,0-3.1-.689,4.555,4.555,0,0,0-3.785,1.4,4.074,4.074,0,0,0-.781,2.283h2.672a1.992,1.992,0,0,1,.393-.971,1.762,1.762,0,0,1,1.406-.486,2.878,2.878,0,0,1,1.345.248.93.93,0,0,1,.457.9.832.832,0,0,1-.6.787,4.383,4.383,0,0,1-1.107.243l-.947.116a6.766,6.766,0,0,0-2.446.68,3.013,3.013,0,0,0-1.516,2.826,2.914,2.914,0,0,0,.943,2.325,3.738,3.738,0,0,0,2.388.821c6.042.269,5.973-3.183,6.029-3.9V14.862a2.648,2.648,0,0,0-1.356-2.6m-1.4,6.031a2.219,2.219,0,0,1-.793,1.913,2.891,2.891,0,0,1-1.67.525,1.52,1.52,0,0,1-.972-.316,1.229,1.229,0,0,1-.4-1.025,1.265,1.265,0,0,1,.652-1.174,4.127,4.127,0,0,1,1.274-.377l.631-.117a4.626,4.626,0,0,0,.741-.191,2.816,2.816,0,0,0,.536-.266Z" transform="translate(-206.615 -7.337)" fill="#08286e"/>
            <path id="Trazado_90407" data-name="Trazado 90407" d="M301.612,13.944a1.8,1.8,0,0,1,1.526.639,2.383,2.383,0,0,1,.42,1.066h2.979a4.077,4.077,0,0,0-1.577-3.148,6.078,6.078,0,0,0-3.428-.89,5,5,0,0,0-3.861,1.51,5.982,5.982,0,0,0-1.4,4.225,5.889,5.889,0,0,0,1.266,3.917,4.876,4.876,0,0,0,3.953,1.51,4.763,4.763,0,0,0,4.057-1.811,4.458,4.458,0,0,0,.959-2.381h-2.97a2.494,2.494,0,0,1-.521,1.356,1.781,1.781,0,0,1-1.452.523,1.94,1.94,0,0,1-1.964-1.318,5.049,5.049,0,0,1-.286-1.863,5.512,5.512,0,0,1,.286-1.951,2,2,0,0,1,2.015-1.385" transform="translate(-204.727 -7.342)" fill="#08286e"/>
            <path id="Trazado_90408" data-name="Trazado 90408" d="M294.357,11.61c-6.121,0-5.759,5.419-5.759,5.419v5.506h2.777V17.371a4.257,4.257,0,0,1,.319-1.88,2.29,2.29,0,0,1,2.237-1.085c.084,0,.193,0,.329.011s.289.019.466.039V11.631l-.238-.015c-.036,0-.08-.006-.131-.006" transform="translate(-203.612 -7.342)" fill="#08286e"/>
            <path id="Trazado_90409" data-name="Trazado 90409" d="M282.156,19.66a2.067,2.067,0,0,1-.38.42,2.373,2.373,0,0,1-1.553.421,2.634,2.634,0,0,1-1.479-.355,2.5,2.5,0,0,1-1.124-2.205h7.685a13.883,13.883,0,0,0-.092-2.094,5.182,5.182,0,0,0-.84-2.181,4.309,4.309,0,0,0-1.824-1.563,6.032,6.032,0,0,0-2.48-.492,5.084,5.084,0,0,0-3.773,1.463,5.713,5.713,0,0,0-1.456,4.2,5.113,5.113,0,0,0,1.611,4.224,5.754,5.754,0,0,0,3.717,1.3,5.128,5.128,0,0,0,3.97-1.539,3.745,3.745,0,0,0,.964-1.6Zm-3.735-5.172a2.2,2.2,0,0,1,1.647-.6,2.421,2.421,0,0,1,1.638.568,2.306,2.306,0,0,1,.733,1.667h-4.753a2.866,2.866,0,0,1,.734-1.633" transform="translate(-201.615 -7.342)" fill="#08286e"/>
            <path id="Trazado_90410" data-name="Trazado 90410" d="M270.957,22.528H268.42v-6.39a1.783,1.783,0,0,0-1.867-1.972,1.87,1.87,0,0,0-1.923,1.972v6.39h-2.54v-6.39a1.767,1.767,0,0,0-1.846-1.972,1.86,1.86,0,0,0-1.924,1.972v6.39h-2.538V16.2a4.354,4.354,0,0,1,4.462-4.632,3.905,3.905,0,0,1,3.155,1.472,4.041,4.041,0,0,1,3.154-1.472c2.77,0,4.4,1.914,4.4,4.632Z" transform="translate(-198.847 -7.336)" fill="#08286e"/>
            <path id="Trazado_90411" data-name="Trazado 90411" d="M331.5,7.7s-2.8-.3-2.8,1.949l0,2.976a3.347,3.347,0,0,0-1.21-1.166,3.4,3.4,0,0,0-1.7-.421,4.047,4.047,0,0,0-3.323,1.549,6.816,6.816,0,0,0-1.244,4.322,5.743,5.743,0,0,0,1.263,3.84,5.348,5.348,0,0,0,3.959,1.433c5.115,0,5.056-4.386,5.056-4.386Zm-3.332,11.348a2.035,2.035,0,0,1-1.781.872,1.947,1.947,0,0,1-1.747-.877,4.467,4.467,0,0,1-.575-2.41,4.236,4.236,0,0,1,.565-2.27,1.937,1.937,0,0,1,1.775-.915,2.11,2.11,0,0,1,1.395.5,3.632,3.632,0,0,1,.978,2.841,3.854,3.854,0,0,1-.61,2.256" transform="translate(-208.349 -6.773)" fill="#08286e"/>
            <path id="Trazado_90412" data-name="Trazado 90412" d="M279.039,42.781a1.306,1.306,0,0,1-.41.967,1.34,1.34,0,0,1-.98.4h-1.387V34.5a4.454,4.454,0,0,1,1.674-3.847,5.583,5.583,0,0,1,3.635-1.027,4.873,4.873,0,0,1,3.636,1.5,5.934,5.934,0,0,1,1.3,4.016,6.5,6.5,0,0,1-1.225,4.11,3.844,3.844,0,0,1-3.145,1.531,4.214,4.214,0,0,1-1.8-.362,3.049,3.049,0,0,1-1.307-1.25Zm4.655-7.516a4.066,4.066,0,0,0-.614-2.417A2.04,2.04,0,0,0,281.325,32a2.007,2.007,0,0,0-1.716.847,4.09,4.09,0,0,0-.569,2.417,3.617,3.617,0,0,0,.613,2.3,2.03,2.03,0,0,0,1.755.847,1.953,1.953,0,0,0,1.674-.847,3.824,3.824,0,0,0,.614-2.3" transform="translate(-201.821 -9.958)" fill="#0090df"/>
            <path id="Trazado_90413" data-name="Trazado 90413" d="M308.543,39.889v-.682a3.068,3.068,0,0,1-1.945,1.409,3.983,3.983,0,0,1-2.426-.2,4.507,4.507,0,0,1-2.068-1.79,6.188,6.188,0,0,1-.861-3.445,6.658,6.658,0,0,1,1.142-4.045,4.385,4.385,0,0,1,3.671-1.551,5.093,5.093,0,0,1,3.569,1.047,4.48,4.48,0,0,1,1.645,3.864v5.678a4.741,4.741,0,0,1-5.213,4.872,4.571,4.571,0,0,1-4.572-3.463h2.928a2.075,2.075,0,0,0,.984.863,2.054,2.054,0,0,0,1.321.162,2.2,2.2,0,0,0,1.206-.784,3.3,3.3,0,0,0,.62-1.934m-4.572-4.629q0,2.777,1.605,3.081a2.189,2.189,0,0,0,2.365-.747,3,3,0,0,0,.521-1.387,5.877,5.877,0,0,0,.021-1.871,3.714,3.714,0,0,0-.662-1.652,1.759,1.759,0,0,0-1.524-.725,1.849,1.849,0,0,0-1.844,1.005,5.236,5.236,0,0,0-.482,2.3" transform="translate(-205.449 -9.952)" fill="#0090df"/>
            <path id="Trazado_90414" data-name="Trazado 90414" d="M297.105,30.362a6.782,6.782,0,0,0-3.1-.688,4.554,4.554,0,0,0-3.785,1.4,4.069,4.069,0,0,0-.781,2.282h2.673a2,2,0,0,1,.393-.971,1.765,1.765,0,0,1,1.406-.486,2.88,2.88,0,0,1,1.345.248.933.933,0,0,1,.458.9.833.833,0,0,1-.6.787,4.442,4.442,0,0,1-1.106.243l-.947.115a6.772,6.772,0,0,0-2.445.68,3.01,3.01,0,0,0-1.517,2.825,2.915,2.915,0,0,0,.943,2.326,3.743,3.743,0,0,0,2.388.821c6.039.269,5.971-3.184,6.027-3.9V32.965a2.647,2.647,0,0,0-1.355-2.6m-1.4,6.031a2.214,2.214,0,0,1-.792,1.913,2.885,2.885,0,0,1-1.669.524,1.518,1.518,0,0,1-.972-.315,1.226,1.226,0,0,1-.4-1.025,1.265,1.265,0,0,1,.654-1.174,4.1,4.1,0,0,1,1.273-.377l.63-.117a4.443,4.443,0,0,0,.741-.191,2.791,2.791,0,0,0,.536-.266Z" transform="translate(-203.686 -9.965)" fill="#0090df"/>
            <path id="Trazado_90415" data-name="Trazado 90415" d="M323.661,31.22a5.751,5.751,0,0,0-8.112,0,6.542,6.542,0,0,0,0,7.926,5.815,5.815,0,0,0,8.112,0,6.552,6.552,0,0,0,0-7.926m-2.208,6.4a2.441,2.441,0,0,1-3.721,0,3.963,3.963,0,0,1-.653-2.445,3.941,3.941,0,0,1,.653-2.44,2.45,2.45,0,0,1,3.721,0,3.97,3.97,0,0,1,.648,2.44,3.992,3.992,0,0,1-.648,2.445" transform="translate(-207.332 -9.947)" fill="#0090df"/>
          </g>
        </g>
      </g>
    </g>
    <text id="Entre_otros" data-name="Entre otros" transform="translate(1532 1505)" fill="#fff" font-size="30" font-family="Roboto-Regular, Roboto"><tspan x="0" y="0">Entre otros</tspan></text>
    <line id="Línea_15" data-name="Línea 15" y2="59" transform="translate(1510.5 1463.5)" fill="none" stroke="#fff" stroke-width="2"/>
  </g>
</svg>
