<?xml version="1.0" encoding="UTF-8"?>
<svg id="Capa_2" data-name="Capa 2" xmlns="http://www.w3.org/2000/svg" xmlns:xlink="http://www.w3.org/1999/xlink" viewBox="0 0 392.24 116.69">
  <defs>
    <style>
      .cls-1 {
        fill: url(#Degradado_sin_nombre_73);
      }

      .cls-1, .cls-2, .cls-3, .cls-4, .cls-5, .cls-6, .cls-7, .cls-8 {
        stroke-width: 0px;
      }

      .cls-2 {
        fill: url(#linear-gradient);
      }

      .cls-3 {
        fill: url(#Degradado_sin_nombre_73-3);
      }

      .cls-4 {
        fill: url(#Degradado_sin_nombre_73-2);
      }

      .cls-5 {
        fill: url(#linear-gradient-2);
      }

      .cls-6 {
        fill: url(#linear-gradient-3);
      }

      .cls-7 {
        fill: #f49020;
      }

      .cls-8 {
        fill: #fff;
      }
    </style>
    <linearGradient id="Degradado_sin_nombre_73" data-name="Degradado sin nombre 73" x1="240.53" y1="11.92" x2="240.53" y2="58.55" gradientUnits="userSpaceOnUse">
      <stop offset="0" stop-color="#ee6623"/>
      <stop offset=".99" stop-color="#f49020"/>
    </linearGradient>
    <linearGradient id="Degradado_sin_nombre_73-2" data-name="Degradado sin nombre 73" x1="302.08" y1="11.92" x2="302.08" y2="58.55" xlink:href="#Degradado_sin_nombre_73"/>
    <linearGradient id="Degradado_sin_nombre_73-3" data-name="Degradado sin nombre 73" x1="364.3" y1="11.92" x2="364.3" y2="58.55" xlink:href="#Degradado_sin_nombre_73"/>
    <linearGradient id="linear-gradient" x1="123.07" y1="43.39" x2="123.07" y2="93.29" gradientUnits="userSpaceOnUse">
      <stop offset="0" stop-color="#efefef"/>
      <stop offset="1" stop-color="#a5a6a9"/>
    </linearGradient>
    <linearGradient id="linear-gradient-2" x1="180.67" y1="43.39" x2="180.67" y2="93.29" xlink:href="#linear-gradient"/>
    <linearGradient id="linear-gradient-3" x1="45.78" y1="43.39" x2="45.78" y2="93.29" xlink:href="#linear-gradient"/>
  </defs>
  <g id="Layer_1" data-name="Layer 1">
    <g>
      <g>
        <g>
          <path class="cls-7" d="M62.89,111.91v-13.22h2.58l.39,1.91c1.18-1.28,2.61-1.91,4.27-1.91s2.8.6,3.41,1.81c1.35-1.21,2.76-1.81,4.24-1.81,3.04,0,4.56,1.67,4.56,5.02v8.19h-3.34v-8.32c0-1.47-.66-2.2-1.99-2.2-.99,0-1.94.45-2.86,1.33v9.19h-3.34v-8.28c0-1.49-.61-2.24-1.84-2.24-.97,0-1.89.45-2.76,1.33v9.19h-3.34Z"/>
          <path class="cls-7" d="M83.82,105.3c0-4.43,2.18-6.65,6.54-6.65s6.54,2.22,6.54,6.65-2.18,6.63-6.54,6.63-6.53-2.21-6.54-6.63ZM90.36,109.39c2.14,0,3.21-1.38,3.21-4.14s-1.07-4.04-3.21-4.04-3.21,1.35-3.21,4.04,1.07,4.14,3.21,4.14Z"/>
          <path class="cls-7" d="M96.82,98.7h3.52l3.21,9.24,3.34-9.24h3.52l-5.37,13.22h-3.17l-5.05-13.22Z"/>
          <path class="cls-7" d="M114.29,93.91v2.64h-3.34v-2.64h3.34ZM114.29,98.7v13.22h-3.34v-13.22h3.34Z"/>
          <path class="cls-7" d="M121.98,98.7c4.01,0,6.02,2.05,6.02,6.14,0,.55-.04,1.09-.11,1.64h-8.77c0,1.86,1.37,2.79,4.1,2.79,1.33,0,2.67-.13,4-.38v2.64c-1.17.25-2.58.38-4.25.38-4.79,0-7.19-2.25-7.19-6.76s2.07-6.46,6.21-6.46ZM119.12,104.16h5.64v-.1c0-1.83-.92-2.74-2.77-2.74s-2.72.95-2.87,2.84Z"/>
          <path class="cls-7" d="M129.47,111.28v-2.77c1.47.59,3.16.88,5.08.88,1.44,0,2.15-.46,2.15-1.39s-.48-1.32-1.45-1.32h-2.39c-2.69,0-4.03-1.32-4.03-3.97s1.96-4.15,5.88-4.15c1.66,0,3.23.25,4.69.76v2.77c-1.47-.59-3.06-.88-4.78-.88-1.8,0-2.71.46-2.71,1.38s.52,1.32,1.57,1.32h2.14c2.94,0,4.41,1.32,4.41,3.96s-1.87,4.15-5.61,4.15c-1.84,0-3.49-.25-4.96-.76Z"/>
          <path class="cls-7" d="M151.61,98.7h3.52l3.21,9.24,3.34-9.24h3.52l-5.37,13.22h-3.17l-5.05-13.22Z"/>
          <path class="cls-7" d="M169.08,93.91v2.64h-3.34v-2.64h3.34ZM169.08,98.7v13.22h-3.34v-13.22h3.34Z"/>
          <path class="cls-7" d="M182.9,111.12c-2.02.53-4,.79-5.93.79-4.27,0-6.41-2.29-6.41-6.87,0-4.23,2.09-6.34,6.27-6.34.89,0,1.8.21,2.73.63v-5.41h3.34v17.21ZM179.56,102.14c-.69-.45-1.55-.68-2.59-.68-2.07,0-3.11,1.16-3.11,3.49,0,2.76,1.08,4.14,3.23,4.14.87,0,1.7-.12,2.47-.36v-6.58Z"/>
          <path class="cls-7" d="M190.59,98.7c4.01,0,6.02,2.05,6.02,6.14,0,.55-.04,1.09-.11,1.64h-8.77c0,1.86,1.37,2.79,4.1,2.79,1.33,0,2.67-.13,4-.38v2.64c-1.17.25-2.58.38-4.25.38-4.79,0-7.19-2.25-7.19-6.76s2.07-6.46,6.21-6.46ZM187.72,104.16h5.64v-.1c0-1.83-.92-2.74-2.77-2.74s-2.72.95-2.87,2.84Z"/>
          <path class="cls-7" d="M197.45,105.3c0-4.43,2.18-6.65,6.54-6.65s6.55,2.22,6.55,6.65-2.18,6.63-6.55,6.63-6.53-2.21-6.54-6.63ZM204,109.39c2.14,0,3.21-1.38,3.21-4.14s-1.07-4.04-3.21-4.04-3.21,1.35-3.21,4.04,1.07,4.14,3.21,4.14Z"/>
          <path class="cls-7" d="M223.36,111.28v-2.77c1.47.59,3.16.88,5.09.88,1.43,0,2.15-.46,2.15-1.39s-.48-1.32-1.45-1.32h-2.39c-2.69,0-4.03-1.32-4.03-3.97s1.96-4.15,5.88-4.15c1.66,0,3.23.25,4.69.76v2.77c-1.47-.59-3.06-.88-4.78-.88s-2.71.46-2.71,1.38.52,1.32,1.57,1.32h2.14c2.94,0,4.4,1.32,4.4,3.96s-1.87,4.15-5.61,4.15c-1.84,0-3.49-.25-4.96-.76Z"/>
          <path class="cls-7" d="M235.04,96.56h2.47l.5,2.14h3.32v2.64h-2.96v6.08c0,1.23.53,1.85,1.6,1.85h1.36v2.64h-2.97c-2.22,0-3.32-1.19-3.32-3.56v-11.79Z"/>
          <path class="cls-7" d="M242.56,111.91v-13.22h2.58l.42,1.69c1.16-1.12,2.38-1.69,3.68-1.69v2.69c-1.24,0-2.35.52-3.34,1.55v8.97h-3.34Z"/>
          <path class="cls-7" d="M255.67,98.7c4.01,0,6.02,2.05,6.02,6.14,0,.55-.04,1.09-.11,1.64h-8.77c0,1.86,1.37,2.79,4.1,2.79,1.33,0,2.67-.13,4-.38v2.64c-1.17.25-2.58.38-4.25.38-4.79,0-7.19-2.25-7.19-6.76s2.07-6.46,6.2-6.46ZM252.8,104.16h5.64v-.1c0-1.83-.92-2.74-2.77-2.74s-2.72.95-2.87,2.84Z"/>
          <path class="cls-7" d="M262.53,107.8c0-2.63,1.91-3.94,5.74-3.94.9,0,1.8.08,2.69.25v-.99c0-1.18-.85-1.77-2.56-1.77-1.44,0-3.05.21-4.81.63v-2.64c1.76-.42,3.36-.63,4.81-.63,3.93,0,5.89,1.45,5.89,4.36v8.86h-1.94l-1.18-1.18c-1.15.79-2.42,1.18-3.8,1.18-3.23,0-4.85-1.37-4.85-4.12ZM268.27,106.12c-1.6,0-2.4.55-2.4,1.64,0,1.18.67,1.76,2.01,1.76,1.11,0,2.13-.34,3.08-1.03v-2.11c-.84-.17-1.74-.25-2.69-.25Z"/>
          <path class="cls-7" d="M276.41,111.91v-13.22h2.58l.39,1.91c1.18-1.28,2.61-1.91,4.27-1.91s2.8.6,3.41,1.81c1.35-1.21,2.76-1.81,4.24-1.81,3.04,0,4.56,1.67,4.56,5.02v8.19h-3.34v-8.32c0-1.47-.66-2.2-1.99-2.2-.99,0-1.94.45-2.86,1.33v9.19h-3.34v-8.28c0-1.49-.61-2.24-1.84-2.24-.97,0-1.89.45-2.76,1.33v9.19h-3.34Z"/>
          <path class="cls-7" d="M301.31,93.91v2.64h-3.34v-2.64h3.34ZM301.31,98.7v13.22h-3.34v-13.22h3.34Z"/>
          <path class="cls-7" d="M303.42,111.91v-13.22h2.58l.42,1.94c1.27-1.29,2.71-1.94,4.33-1.94,3.13,0,4.69,1.63,4.69,4.88v8.33h-3.34v-8.33c0-1.46-.73-2.19-2.18-2.19-1.08,0-2.14.43-3.17,1.3v9.23h-3.34Z"/>
          <path class="cls-7" d="M329.35,110.9c0,3.86-2.32,5.79-6.96,5.79-1.63,0-3.07-.21-4.33-.63v-2.64c1.28.42,2.73.63,4.35.63,2.4,0,3.6-1.01,3.6-3.02-.99.42-2.06.63-3.2.63-3.93,0-5.89-2.14-5.89-6.43s2.29-6.53,6.86-6.53c1.54,0,3.39.18,5.56.54v11.67ZM326.02,101.69c-.55-.2-1.32-.3-2.33-.3-2.31,0-3.46,1.27-3.46,3.81s.99,3.69,2.98,3.69c.96,0,1.89-.23,2.81-.68v-6.52Z"/>
        </g>
        <rect class="cls-8" x="145.36" y="96.03" width="1.03" height="16.18"/>
        <rect class="cls-8" x="216.02" y="96.03" width="1.03" height="16.18"/>
      </g>
      <g>
        <g>
          <path class="cls-1" d="M213.24,81.72V0h15.14v29.37c4.72-5.11,10.76-7.66,18.12-7.66,14.21,0,21.32,7.39,21.32,22.17v37.83h-15.14v-37.83c0-6.63-3.3-9.94-9.89-9.94-4.91,0-9.72,1.96-14.4,5.89v41.89h-15.14Z"/>
          <path class="cls-4" d="M329.09,21.52v60.2h-11.83l-1.83-7.66c-6.9,5.11-14.21,7.66-21.94,7.66-12.27,0-18.4-7.26-18.4-21.77V21.52h15.14v38.03c0,6.63,2.89,9.94,8.69,9.94,4.91,0,9.92-1.96,15.03-5.89V21.52h15.14Z"/>
          <path class="cls-3" d="M336.35,0h15.14v26.29c4.53-3.05,9.58-4.57,15.14-4.57,17.07,0,25.6,9.6,25.6,28.8,0,20.8-9.77,31.2-29.32,31.2-8.23,0-17.09-.82-26.57-2.46V0ZM351.5,67.83c3.47,1.11,7.49,1.66,12.06,1.66,9.14,0,13.71-6.46,13.71-19.37,0-10.55-3.94-15.83-11.83-15.83-5.11,0-9.75,1.03-13.94,3.09v30.46Z"/>
        </g>
        <polygon class="cls-2" points="122.78 63.47 108.21 21.52 92.21 21.52 115.12 81.53 129.52 81.53 153.93 21.52 137.93 21.52 122.78 63.47"/>
        <path class="cls-5" d="M186.1,45.24h-9.72c-1.91,0-3.43-.32-4.58-.96-1.71-.96-2.57-2.64-2.57-5.04s1.23-3.96,3.68-5c2.03-.86,4.9-1.29,8.6-1.29,7.55,0,14.56,1.25,21.05,3.74.22.09.45.17.67.26v-12.57c-6.67-2.29-13.77-3.43-21.32-3.43-5.23,0-9.69.54-13.38,1.63-2.73.8-5.04,1.9-6.93,3.3-2.13,1.57-3.72,3.52-4.78,5.84-.53,1.16-.93,2.42-1.2,3.76s-.4,2.79-.4,4.33c0,1.92.16,3.68.47,5.3.51,2.65,1.44,4.88,2.8,6.7,1.49,2,3.48,3.5,5.99,4.5,1.36.54,2.87.94,4.54,1.19,1.39.21,2.9.31,4.5.31h10.86c1.44,0,2.64.22,3.61.65.99.44,1.73,1.11,2.22,2,.49.89.74,2.01.74,3.35,0,1.54-.44,2.8-1.32,3.78s-2.21,1.67-3.97,2.07c-1.27.29-2.76.44-4.48.44-2.43,0-4.77-.1-7.04-.31-2.83-.26-5.53-.68-8.11-1.25-2.79-.63-5.43-1.44-7.93-2.44v12.57c6.67,2.29,14.17,3.43,22.52,3.43,16.99,0,25.49-6.29,25.49-18.86,0-1.51-.11-2.92-.32-4.24-.29-1.84-.79-3.49-1.49-4.96-1.32-2.76-3.36-4.88-6.13-6.34-3.11-1.64-7.13-2.47-12.07-2.47Z"/>
        <path class="cls-6" d="M45.86,30.31c.08-.09.1-.11.2-.22,2.51-2.82,5.39-5.11,8.62-6.72,3.35-1.61,6.82-2.42,10.3-2.42,7.06,0,13.77,3.09,18.8,8.6,5.03,5.78,7.78,11.32,7.78,19.25v32.92h-14.97v-32.92c0-7.12-5.39-13.44-11.61-13.44s-11.73,6.18-11.73,13.44v32.92h-14.93v-32.92c0-7.26-5.27-13.44-11.73-13.44s-11.61,6.32-11.61,13.44v32.92H0v-32.92c0-7.93,2.75-13.47,7.78-19.25,5.03-5.51,11.73-8.6,18.8-8.6,3.47,0,6.94.81,10.3,2.42,3.23,1.61,6.11,3.9,8.62,6.72.1.12.12.14.2.22l.08.08.08-.08Z"/>
      </g>
    </g>
  </g>
</svg>